<svg width="26" height="26" viewBox="0 0 26 26" fill="none" xmlns="http://www.w3.org/2000/svg">
<g clip-path="url(#clip0_0_65)">
<path d="M5.92237 15.4483C5.70262 15.5257 5.49432 15.6273 5.3007 15.75C4.43879 15.3934 3.63149 14.8629 2.93182 14.1584C0.0906805 11.3269 0.0906805 6.72378 2.93182 3.89223C3.22247 3.60181 3.52766 3.34044 3.85464 3.1081C4.39962 2.7233 5.25704 3.36948 5.19891 3.97209C5.00272 6.04856 5.70029 8.20489 7.29888 9.79492C7.90901 10.4073 8.60138 10.8874 9.34078 11.2355C7.39941 11.5562 5.91876 13.2426 5.91876 15.2748C5.91876 15.333 5.91997 15.3908 5.92237 15.4483Z" fill="white"/>
<path d="M11.5824 6.53538L12.1216 8.32311C12.0684 8.3658 12.016 8.40942 11.9644 8.45397L10.393 7.38764L8.57432 8.62171L9.20359 6.53538L7.45409 5.21268L9.65999 5.15132L10.393 3.1059L11.126 5.15132L13.3319 5.21268L11.5824 6.53538Z" fill="white"/>
<path d="M17.8 5.32177L18.9341 4.46952L17.5096 4.43543L17.0324 3.10591L16.5553 4.43543L15.1308 4.46952L16.2649 5.32177L15.8569 6.67175L17.0324 5.87404L18.208 6.67175L17.8 5.32177Z" fill="white"/>
<path d="M7.96588 22.4398H21.2722C23.5334 22.4398 25.3664 20.6067 25.3664 18.3455C25.3664 16.4252 24.0443 14.8136 22.2607 14.3714C22.2838 14.164 22.2957 13.9531 22.2957 13.7395C22.2957 10.6304 19.7753 8.10993 16.6661 8.10993C14.0873 8.10993 11.9135 9.84387 11.247 12.2095C11.1773 12.206 11.1071 12.2042 11.0366 12.2042C8.77538 12.2042 6.94232 14.0372 6.94232 16.2984C6.94232 16.3565 6.94353 16.4143 6.94593 16.4719C5.7514 16.8924 4.8952 18.0307 4.8952 19.3691C4.8952 21.065 6.26999 22.4398 7.96588 22.4398Z" fill="white"/>
</g>
<defs>
<clipPath id="clip0_0_65">
<rect width="24.5654" height="24.5654" fill="white" transform="translate(0.800964 0.945007)"/>
</clipPath>
</defs>
</svg>
