<svg width="21" height="21" viewBox="0 0 21 21" fill="none" xmlns="http://www.w3.org/2000/svg">
<path fill-rule="evenodd" clip-rule="evenodd" d="M17.6778 10.8372C17.6778 6.86151 14.4549 3.63856 10.4792 3.63856C6.50348 3.63856 3.28054 6.86151 3.28054 10.8372C3.28054 14.8129 6.50348 18.0358 10.4792 18.0358C14.4549 18.0358 17.6778 14.8129 17.6778 10.8372ZM9.84401 6.60271C9.84401 6.25191 10.1284 5.96754 10.4792 5.96754C10.83 5.96754 11.1144 6.25191 11.1144 6.60271V10.8372C11.1144 11.0562 11.0015 11.2598 10.8158 11.3758L8.27513 12.9638C7.97765 13.1497 7.58578 13.0593 7.39986 12.7618C7.21394 12.4643 7.30437 12.0724 7.60184 11.8865L9.84401 10.4852V6.60271Z" fill="white"/>
</svg>
