<svg width="25" height="25" viewBox="0 0 25 25" fill="none" xmlns="http://www.w3.org/2000/svg">
<g clip-path="url(#clip0_0_148)">
<path d="M8.33334 5.20833C8.33334 4.10326 8.77233 3.04345 9.55373 2.26205C10.3351 1.48065 11.3949 1.04166 12.5 1.04166C13.6051 1.04166 14.6649 1.48065 15.4463 2.26205C16.2277 3.04345 16.6667 4.10326 16.6667 5.20833V10.6823C17.9406 11.5693 18.8982 12.8398 19.4001 14.3088C19.902 15.7778 19.9219 17.3686 19.4571 18.8497C18.9922 20.3309 18.0668 21.625 16.8155 22.5437C15.5642 23.4624 14.0524 23.9579 12.5 23.9579C10.9477 23.9579 9.43581 23.4624 8.18453 22.5437C6.93324 21.625 6.00782 20.3309 5.54296 18.8497C5.0781 17.3686 5.09805 15.7778 5.59993 14.3088C6.1018 12.8398 7.0594 11.5693 8.33334 10.6823V5.20833ZM9.52501 12.3906C8.61477 13.0241 7.93047 13.9315 7.57173 14.9808C7.21299 16.0301 7.19854 17.1665 7.53047 18.2247C7.8624 19.2828 8.5234 20.2073 9.41723 20.8637C10.3111 21.5201 11.3911 21.874 12.5 21.874C13.609 21.874 14.689 21.5201 15.5828 20.8637C16.4766 20.2073 17.1376 19.2828 17.4696 18.2247C17.8015 17.1665 17.787 16.0301 17.4283 14.9808C17.0695 13.9315 16.3852 13.0241 15.475 12.3906L14.5833 11.7687V5.20833C14.5833 4.6558 14.3639 4.12589 13.9731 3.73519C13.5824 3.34449 13.0525 3.125 12.5 3.125C11.9475 3.125 11.4176 3.34449 11.0269 3.73519C10.6362 4.12589 10.4167 4.6558 10.4167 5.20833V11.7687L9.52501 12.3906ZM11.4583 12.6312V5.20833H13.5417V12.6312C14.5214 12.8872 15.3744 13.491 15.9415 14.3299C16.5086 15.1687 16.751 16.1853 16.6234 17.1898C16.4958 18.1943 16.007 19.118 15.2482 19.7885C14.4894 20.459 13.5126 20.8304 12.5 20.8333C11.4852 20.8343 10.5048 20.4649 9.743 19.7944C8.98119 19.1239 8.49029 18.1984 8.36243 17.1916C8.23457 16.1848 8.47854 15.166 9.04856 14.3264C9.61858 13.4867 10.4755 12.884 11.4583 12.6312ZM12.5 18.75C13.0525 18.75 13.5824 18.5305 13.9731 18.1398C14.3639 17.7491 14.5833 17.2192 14.5833 16.6667C14.5833 16.1141 14.3639 15.5842 13.9731 15.1935C13.5824 14.8028 13.0525 14.5833 12.5 14.5833C11.9475 14.5833 11.4176 14.8028 11.0269 15.1935C10.6362 15.5842 10.4167 16.1141 10.4167 16.6667C10.4167 17.2192 10.6362 17.7491 11.0269 18.1398C11.4176 18.5305 11.9475 18.75 12.5 18.75Z" fill="white"/>
</g>
<defs>
<clipPath id="clip0_0_148">
<rect width="25" height="25" fill="white"/>
</clipPath>
</defs>
</svg>
