<svg width="23" height="23" viewBox="0 0 23 23" fill="none" xmlns="http://www.w3.org/2000/svg">
<path d="M11.5 0.302094C11.9315 0.302094 12.2813 0.651871 12.2813 1.08334V2.12501C12.2813 2.55648 11.9315 2.90626 11.5 2.90626C11.0685 2.90626 10.7188 2.55648 10.7188 2.12501V1.08334C10.7188 0.651871 11.0685 0.302094 11.5 0.302094Z" fill="white"/>
<path d="M11.5 5.51043C8.19206 5.51043 5.51043 8.19206 5.51043 11.5C5.51043 14.808 8.19206 17.4896 11.5 17.4896C14.808 17.4896 17.4896 14.808 17.4896 11.5C17.4896 8.19206 14.808 5.51043 11.5 5.51043Z" fill="white"/>
<path d="M4.68676 3.58191C4.38166 3.27681 3.887 3.27681 3.5819 3.58191C3.27681 3.88701 3.27681 4.38167 3.5819 4.68677L4.31847 5.42334C4.62357 5.72843 5.11823 5.72843 5.42333 5.42334C5.72842 5.11824 5.72842 4.62358 5.42333 4.31848L4.68676 3.58191Z" fill="white"/>
<path d="M22.6979 11.5C22.6979 11.9315 22.3482 12.2813 21.9167 12.2813H20.875C20.4435 12.2813 20.0938 11.9315 20.0938 11.5C20.0938 11.0685 20.4435 10.7188 20.875 10.7188H21.9167C22.3482 10.7188 22.6979 11.0685 22.6979 11.5Z" fill="white"/>
<path d="M19.4181 4.68676C19.7232 4.38166 19.7232 3.887 19.4181 3.5819C19.113 3.27681 18.6184 3.27681 18.3133 3.5819L17.5767 4.31847C17.2716 4.62357 17.2716 5.11823 17.5767 5.42333C17.8818 5.72842 18.3764 5.72842 18.6815 5.42333L19.4181 4.68676Z" fill="white"/>
<path d="M11.5 20.0938C11.9315 20.0938 12.2813 20.4435 12.2813 20.875V21.9167C12.2813 22.3482 11.9315 22.6979 11.5 22.6979C11.0685 22.6979 10.7188 22.3482 10.7188 21.9167V20.875C10.7188 20.4435 11.0685 20.0938 11.5 20.0938Z" fill="white"/>
<path d="M18.6816 17.5767C18.3765 17.2716 17.8819 17.2716 17.5768 17.5767C17.2717 17.8818 17.2717 18.3765 17.5768 18.6816L18.3133 19.4181C18.6184 19.7232 19.1131 19.7232 19.4182 19.4181C19.7233 19.113 19.7233 18.6184 19.4182 18.3133L18.6816 17.5767Z" fill="white"/>
<path d="M2.90626 11.5C2.90626 11.9315 2.55648 12.2813 2.12501 12.2813H1.08334C0.651871 12.2813 0.302094 11.9315 0.302094 11.5C0.302094 11.0685 0.651871 10.7188 1.08334 10.7188H2.12501C2.55648 10.7188 2.90626 11.0685 2.90626 11.5Z" fill="white"/>
<path d="M5.42326 18.6815C5.72835 18.3764 5.72835 17.8818 5.42326 17.5767C5.11816 17.2716 4.6235 17.2716 4.3184 17.5767L3.58183 18.3133C3.27674 18.6184 3.27674 19.113 3.58183 19.4181C3.88693 19.7232 4.38159 19.7232 4.68669 19.4181L5.42326 18.6815Z" fill="white"/>
</svg>
